# xmcd CD database file
#
# Track frame offsets:
#	150
#	38875
#	44950
#	75292
#	82582
#	113605
#	136642
#	140757
#	165032
#	172492
#	189285
#	196437
#	201157
#	223500
#	229445
#	242685
#	260055
#
# Disc length: 3725 seconds
#
# Revision: 1
# Processed by: cddbd v1.5.1PL0 Copyright (c) Steve Scherf et al.
# Submitted via: CDex 1.51
#
DISCID=ea0e8b11
DTITLE=Anders Persson Trio - Domestic Wax
DYEAR=1999
DGENRE=Jazz
TTITLE0=Nippon Song
TTITLE1=Sketch #1
TTITLE2=Embraceable You
TTITLE3=Sketch #2
TTITLE4=I'm Thru With Love
TTITLE5=Be My Love
TTITLE6=Sketch #3
TTITLE7=Red Oakville
TTITLE8=Sketch #4
TTITLE9=Mascarille
TTITLE10=Sketch #5
TTITLE11=Sketch #6
TTITLE12=Momo
TTITLE13=Sketch #7
TTITLE14=Waltz For Vana
TTITLE15=Domestic Was
TTITLE16=Falling in Love Again
EXTD=YEAR: 1999
EXTT0=
EXTT1=
EXTT2=
EXTT3=
EXTT4=
EXTT5=
EXTT6=
EXTT7=
EXTT8=
EXTT9=
EXTT10=
EXTT11=
EXTT12=
EXTT13=
EXTT14=
EXTT15=
EXTT16=
PLAYORDER=
